<svg width="25px" height="25px" viewBox="0 0 25 25" version="1.1" xmlns="http://www.w3.org/2000/svg" xmlns:xlink="http://www.w3.org/1999/xlink">

        <path d="M13.4416961,4 C13.8798608,4 14.2491151,4.16207141 14.54947,4.48621908 C14.8498248,4.81036676 15,5.20235341 15,5.66219081 C15,6.12202821 14.8480581,6.51401487 14.5441696,6.83816254 C14.2402812,7.16231022 13.8727937,7.32438163 13.4416961,7.32438163 C13.0176657,7.32438163 12.6537118,7.16231022 12.3498233,6.83816254 C12.0459349,6.51401487 11.8939929,6.12202821 11.8939929,5.66219081 C11.8939929,5.20235341 12.0441681,4.81036676 12.344523,4.48621908 C12.6448778,4.16207141 13.0105986,4 13.4416961,4 Z M14.0989399,9.20141343 L11.9257951,17.2409894 C11.8056531,17.7008268 11.745583,18.002355 11.745583,18.145583 C11.745583,18.2285045 11.7773848,18.3057711 11.8409894,18.3773852 C11.904594,18.4489992 11.9717311,18.4848057 12.0424028,18.4848057 C12.1625448,18.4848057 12.2826849,18.4282691 12.4028269,18.3151943 C12.7208496,18.0362766 13.1024713,17.5312168 13.5477032,16.8 L13.9081272,17.0261484 C12.8409841,19.008726 11.7067198,20 10.5053004,20 C10.0459341,20 9.68021337,19.8624278 9.40812721,19.5872792 C9.13604104,19.3121305 9,18.9634886 9,18.5413428 C9,18.262425 9.06007007,17.9081294 9.18021201,17.4784452 L10.6537102,12.0734982 C10.7950537,11.5533543 10.8657244,11.1613676 10.8657244,10.8975265 C10.8657244,10.7316835 10.7985872,10.5846885 10.664311,10.4565371 C10.5300347,10.3283857 10.3462909,10.264311 10.1130742,10.264311 C10.0070666,10.264311 9.8798594,10.2680801 9.73144876,10.2756184 L9.86925795,9.82332155 L13.4628975,9.20141343 L14.0989399,9.20141343 Z" id="path-1"></path>
    <g id="Artboard" stroke="none" stroke-width="1" fill="none" fill-rule="evenodd">
        <path d="M12.5,23.3333333 C18.4830848,23.3333333 23.3333333,18.4830848 23.3333333,12.5 C23.3333333,6.51691521 18.4830848,1.66666667 12.5,1.66666667 C6.51691521,1.66666667 1.66666667,6.51691521 1.66666667,12.5 C1.66666667,18.4830848 6.51691521,23.3333333 12.5,23.3333333 Z M12.5,25 C5.59644063,25 0,19.4035594 0,12.5 C0,5.59644063 5.59644063,0 12.5,0 C19.4035594,0 25,5.59644063 25,12.5 C25,19.4035594 19.4035594,25 12.5,25 Z" id="Oval" fill="#000000" fill-rule="nonzero"></path>
        <g id="i" fill="#000000">
            <use xlink:href="#path-1"></use>
            <use xlink:href="#path-1"></use>
        </g>
    </g>
</svg>