<svg xmlns="http://www.w3.org/2000/svg" width="516" height="266">
  <g fill="#000f9e" fill-rule="evenodd">
    <path d="M137.318 2.679c-2.083 1.404-3.69 2.897-4.715 4.638l-.31.515v68.236c0 5.278-.632 9.442-1.748 12.361-1.188 3.069-2.666 5.284-4.363 6.771-1.793 1.576-3.677 2.573-5.735 3.093-2.278.558-4.453.827-6.566.827-2.427 0-4.685-.32-6.776-.936-1.936-.573-3.647-1.599-5.201-3.131-1.471-1.489-2.766-3.642-3.763-6.572-.967-2.876-1.526-6.78-1.606-11.646-.005-.614-.005-1.194-.005-1.793 0-3.697.208-6.863.633-9.4.496-3.131.854-5.154.995-5.99l.47-2.572h-13.6l-.482 1.502c-.283.89-.604 2.683-1.215 6.216-.619 3.638-.92 8.207-.92 13.767-.015 10.337 2.567 18.718 7.987 24.787 5.43 6.094 13.433 9.054 23.389 9.054h.094c4.814 0 9.334-.729 13.474-2.219 4.165-1.486 7.841-3.78 10.937-6.863 3.092-3.111 5.476-6.993 7.158-11.496 1.705-4.601 2.517-9.851 2.517-15.76V.412h-2.189c-3.238 0-6.126.712-8.46 2.267zm-1.775 144.526c-2.245-2.113-4.801-3.655-7.639-4.619-2.779-.926-5.666-1.422-8.663-1.422-2.693 0-5.283.381-7.779 1.126-2.486.755-4.781 1.795-6.87 3.131-2.094 1.366-3.914 2.911-5.454 4.657-.762.855-1.448 1.719-2.041 2.594-.194-2.236-.405-3.986-.598-5.241-.306-1.801-.539-3.05-.742-3.78l-.221-.76H82.248v74h15.693v-38.42c0-3.382.497-6.451 1.455-9.264.974-2.831 2.297-5.22 3.935-7.232 1.648-2.034 3.505-3.577 5.609-4.713 2.049-1.126 4.229-1.677 6.565-1.677 4.548.015 7.598 1.599 9.639 4.835.689 1.119 1.228 2.571 1.593 4.359.355 1.756.545 4.231.545 7.36v44.752h15.716v-49.934c0-4.526-.658-8.42-2.035-11.705-1.321-3.212-3.136-5.922-5.42-8.047zm-68.637 81.107C62.393 147.622 0 221.549 0 221.549s32.209-26.285 66.867 6.763c4.494 80.661 66.896 6.753 66.896 6.753s-32.204 26.259-66.857-6.753zm183.42-215.52c-2.628-.035-5.081 1.069-6.851 3.027-1.793 1.926-2.733 4.46-2.719 7.135-.014 2.676.936 5.22 2.719 7.143 1.77 1.96 4.223 3.044 6.851 3.012h.091c2.568 0 5.003-1.08 6.759-3.017 1.789-1.918 2.739-4.462 2.71-7.138.029-2.675-.921-5.209-2.71-7.135-1.775-1.958-4.233-3.062-6.85-3.027zm-7.893 67.017h-23.498V38.146h-16.713c-5.771 0-10.993.86-15.646 2.587-4.601 1.695-8.502 3.995-11.718 6.922-3.184 2.888-5.658 6.28-7.368 10.136-1.715 3.842-2.587 7.889-2.583 12.083 0 3.952.71 7.54 2.178 10.633 1.426 3.007 3.444 5.573 5.961 7.617 2.512 2.01 5.488 3.509 8.872 4.495 3.338.989 6.939 1.456 10.784 1.456h10.617c-.148 2.142-.475 3.842-.996 5.135-.671 1.752-1.614 3.007-2.798 3.913-1.264.963-2.789 1.655-4.74 2.056-2.051.402-4.494.588-7.323.588-1.42 0-2.858-.095-4.296-.257-1.532-.206-2.929-.406-4.186-.64-1.279-.232-2.34-.452-3.166-.682-.896-.234-1.486-.391-1.591-.435l-2.127-.711-3.682 12.123 1.631.805c.775.393 1.672.67 2.913.993 1.247.344 2.678.691 4.329 1.05 1.709.377 3.585.674 5.626.927 2.063.261 4.184.395 6.34.395h.057c9.205 0 16.619-2.353 21.852-7.293 4.765-4.437 7.32-10.598 7.716-17.967h39.229V38.146h-15.674v41.663zm-39.175 0h-8.776c-2.934.026-5.282-.313-6.973-.885-1.788-.598-3.131-1.385-4.129-2.349-1.011-1.003-1.691-2.109-2.111-3.475-.446-1.466-.686-3.129-.686-5.03 0-2.879.559-5.278 1.597-7.246 1.103-2.059 2.532-3.744 4.367-5.101 1.864-1.383 4.088-2.438 6.691-3.177 2.598-.726 5.385-1.098 8.393-1.098h1.627v28.361zm44.369 34.335c-2.382 1.602-4.152 3.249-5.194 5.077l-.148.249v97.421h15.698V111.677h-1.008c-3.698 0-6.837.794-9.348 2.467zm-30.199 37.797c-3.074-3.407-6.768-6.081-11.08-7.952-4.295-1.874-9.039-2.825-14.135-2.825-5.132 0-9.844 1.018-14.115 3.059-4.248 2.019-7.909 4.774-10.961 8.236-3.085 3.466-5.446 7.562-7.123 12.273-1.679 4.722-2.494 9.791-2.494 15.165 0 5.759.803 11.023 2.421 15.788 1.633 4.781 3.977 8.89 7.06 12.313 3.054 3.408 6.707 6.054 10.911 7.872 4.213 1.844 8.958 2.749 14.166 2.749 5.103 0 9.845-.982 14.159-2.96 4.286-1.987 8.001-4.742 11.122-8.237 3.12-3.513 5.503-7.624 7.185-12.292 1.674-4.668 2.503-9.755 2.503-15.233 0-5.767-.829-11.013-2.503-15.73-1.682-4.725-4.052-8.81-7.116-12.226zm-8.003 38.472c-.872 3.171-2.147 5.853-3.792 8.096-1.654 2.253-3.615 3.981-5.924 5.238-2.289 1.263-4.913 1.903-7.929 1.903-5.91-.012-10.272-2.057-13.453-6.126-3.148-4.106-4.825-10.623-4.818-19.627 0-3.767.404-7.203 1.265-10.386.833-3.171 2.039-5.892 3.598-8.189 1.545-2.28 3.467-4.024 5.754-5.287 2.298-1.256 4.867-1.881 7.801-1.881 5.992 0 10.463 2.064 13.813 6.225 3.274 4.135 5.025 10.626 5.025 19.518 0 3.858-.45 7.361-1.34 10.516zM451.223 151.759H515.6v-64.38h-64.377zM386.849 87.379h64.374v-64.38h-64.374zM386.849 216.138h64.374v-64.379h-64.374z"/>
    <path d="M322.478 151.759h64.371v-64.38h-64.371z"/>
  </g>
</svg>
